See and hear Thomas & Friends brought to life like never before in this all new animated special 'Hero of the Rails'!

In a daring race with boastful Spencer, Thomas discovers an abandoned engine, Hiro, who comes from a far off place. Fearing he'll be sent to the smelters yard, Thomas enlists his trusty friends to help rescue him. But will sneaky Spencer foil their plans?

Jump on board for adventure and excitement in Thomas' greatest adventure yet!


Format : MPEG-4
Format profile : Base Media / Version 2
Codec ID : mp42
File size : 699 MiB
Duration : 58mn 40s
Overall bit rate : 1 665 Kbps
Encoded date : UTC 2009-10-15 14:41:14
Tagged date : UTC 2009-10-15 17:31:14
Writing application : HandBrake 0.9.3 2008112300

Video
ID : 1
Format : AVC
Format/Info : Advanced Video Codec
Format profile : Main@L4.0
Format settings, CABAC : Yes
Format settings, ReFrames : 3 frames
Codec ID : avc1
Codec ID/Info : Advanced Video Coding
Duration : 58mn 40s
Bit rate mode : Variable
Bit rate : 1 501 Kbps
Width : 720 pixels
Height : 576 pixels
Display aspect ratio : 16:9
Frame rate mode : Variable
Frame rate : 25.000 fps
Minimum frame rate : 12.500 fps
Maximum frame rate : 25.000 fps
Standard : PAL
Resolution : 24 bits
Colorimetry : 4:2:0
Scan type : Progressive
Bits/(Pixel*Frame) : 0.145
Stream size : 630 MiB (90%)
Writing library : x264 core 65


Audio
ID : 2
Format : AAC
Format/Info : Advanced Audio Codec
Format version : Version 4
Format profile : LC
Format settings, SBR : No
Codec ID : 40
Duration : 58mn 40s
Bit rate mode : Variable
Bit rate : 160 Kbps
Maximum bit rate : 215 Kbps
Channel(s) : 2 channels
Channel positions : L R
Sampling rate : 48.0 KHz
Resolution : 16 bits
Stream size : 67.1 MiB (10%)
Language : English
Encoded date : UTC 2009-10-15 14:41:15
Tagged date : UTC 2009-10-15 17:31:09 